<svg
    width="355"
    height="337"
    viewBox="0 0 355 337"
    fill="none"
    xmlns="http://www.w3.org/2000/svg"
    >
    <path
        d="M233 1V337H196.713V106.876L129.232 337H104.086L36.2869 106.876V337H0V1H39.1516L116.818 264.482L194.167 1H233Z"
        fill="#13FDE0"
    />
    <path
        d="M307.464 121.096C319.594 123.485 329.882 130.531 338.329 142.235C346.776 153.938 351 167.194 351 182.003C351 194.662 347.968 206.127 341.903 216.397C336.055 226.429 327.499 234.43 316.236 240.401C304.973 246.134 291.869 249 276.924 249H197V0H272.7C288.079 0 301.291 2.8662 312.338 8.59858C323.384 14.331 331.723 22.0935 337.354 31.8864C342.986 41.4403 345.802 52.1885 345.802 64.1309C345.802 78.4619 342.336 90.4043 335.405 99.9583C328.474 109.512 319.16 116.558 307.464 121.096ZM233.148 104.616H269.451C281.581 104.616 291.003 101.63 297.717 95.659C304.648 89.4489 308.114 80.6115 308.114 69.1468C308.114 57.9209 304.648 49.2029 297.717 42.9928C291.003 36.5439 281.581 33.3194 269.451 33.3194H233.148L233.148 104.616Z"
        fill="#13FDE0"
    />
    <path
        d="M311.765 337L260.899 248.6H233.241V337H197V116H234.831H273.298C290.253 116 304.559 118.968 316.215 124.904C328.084 130.839 336.879 138.789 342.602 148.753C348.536 158.716 351.503 169.846 351.503 182.141C351.503 196.556 347.264 209.7 338.787 221.571C330.521 233.231 317.699 241.18 300.32 245.42L355 337H311.765ZM233.241 219.663H273.298C286.862 219.663 297.035 216.271 303.817 209.488C310.811 202.704 314.308 193.589 314.308 182.141C314.308 170.694 310.917 161.79 304.135 155.43C297.353 148.859 287.074 145.573 273.298 145.573H233.241V219.663Z"
        fill="#13FDE0"
    />
    <path
        d="M238 150H277.5C295.449 150 310 164.551 310 182.5V182.5C310 200.449 295.449 215 277.5 215H238V150Z"
        fill="#0D2645"
    />
</svg>